# xmcd
#
# Track frame offsets:
#	182
#	15935
#	29845
#	45030
#	60907
#	76400
#	91985
#	108057
#	120847
#	136065
#
# Disc length: 1980 seconds
# Revision: 8
# Processed by: cddbd v1.5.2PL0 Copyright (c) Steve Scherf et al.
# Submitted via: dBpowerAMP V12.0
#
DISCID=6007ba0a
DTITLE=Toby Keith - Toby Keith
DYEAR=1993
DGENRE=Country
TTITLE0=Should’ve Been a Cowboy
TTITLE1=He Ain’t Worth Missing
TTITLE2=Under the Fall
TTITLE3=Some Kinda Good Kinda Hold on Me
TTITLE4=Wish I Didn’t Know Now
TTITLE5=Ain’t No Thang
TTITLE6=Valentine
TTITLE7=A Little Less Talk and a Lot More Action
TTITLE8=Mama Come Quick
TTITLE9=Close but No Guitar
EXTD=
EXTT0=
EXTT1=
EXTT2=
EXTT3=
EXTT4=
EXTT5=
EXTT6=
EXTT7=
EXTT8=
EXTT9=
PLAYORDER=
